<svg width="48" height="48" viewBox="0 0 48 48" fill="none" xmlns="http://www.w3.org/2000/svg">
  <defs>
    <linearGradient id="g" x1="4" y1="6" x2="44" y2="42" gradientUnits="userSpaceOnUse">
      <stop stop-color="#3B82F6"/>
      <stop offset="1" stop-color="#4F46E5"/>
    </linearGradient>
  </defs>
  <rect width="48" height="48" rx="10" fill="#0f1729"/>
  <path d="M24 6 L40 14 L24 22 L8 14 Z" fill="url(#g)" fill-opacity="0.9"/>
  <path d="M8 14 L24 22 L24 42 L8 34 Z" fill="url(#g)" fill-opacity="0.55"/>
  <path d="M40 14 L24 22 L24 42 L40 34 Z" fill="url(#g)" fill-opacity="0.75"/>
  <path d="M24 6 L40 14 L24 22 L8 14 Z M8 14 L24 22 L24 42 M40 14 L24 22 M24 22 L24 42 L40 34 M8 14 L8 34 L24 42 M40 14 L40 34" stroke="#93C5FD" stroke-width="1.3" stroke-linejoin="round" stroke-linecap="round" fill="none"/>
</svg>
